# xmcd CD database file
#
# Track frame offsets:
#	150
#	14369
#	29181
#	43726
#	58271
#	72111
#	86979
#	101056
#	115618
#	130216
#	145236
#	157674
#	173419
#	187790
#	202903
#	218191
#	234938
#	249720
#	264124
#	279690
#	293888
#
# Disc length: 4130 seconds
#
# Revision: 0
# Processed by: cddbd v1.4b42PL1 Copyright (c) Steve Scherf et al.
# Submitted via: Feurio! 1.62 - http://www.feurio.com
#
DISCID=2c102015
DTITLE=Louis Armstrong - Greatest Recordings CD 1
DYEAR=1900
DGENRE=Blues
TTITLE0=Cornet Chop Suey
TTITLE1=Don't Forget To Mess Around
TTITLE2=Skid-Dat-De-Dat
TTITLE3=Twefth Street Rag
TTITLE4=Struttin' With Some Barbecue
TTITLE5=Wild Man Blues
TTITLE6=Fireworks
TTITLE7=A Monday Date
TTITLE8=West End Blues
TTITLE9=Basin Street Blues
TTITLE10=Weather Bird
TTITLE11=Mahagony Hall Stomp
TTITLE12=(What Did I Do To Be So) Black And Blue
TTITLE13=Dear Old Southland
TTITLE14=Dinah
TTITLE15=If I Could Be With You One Hour Tonight
TTITLE16=Tiger Rag
TTITLE17=Them There Eyes
TTITLE18=Shine
TTITLE19=Lazy River
TTITLE20=Star Dust
EXTD=
EXTT0=
EXTT1=
EXTT2=
EXTT3=
EXTT4=
EXTT5=
EXTT6=
EXTT7=
EXTT8=
EXTT9=
EXTT10=
EXTT11=
EXTT12=
EXTT13=
EXTT14=
EXTT15=
EXTT16=
EXTT17=
EXTT18=
EXTT19=
EXTT20=
PLAYORDER=
